<svg width="65" height="48" viewBox="0 0 65 48" fill="none" xmlns="http://www.w3.org/2000/svg">
<g clip-path="url(#clip0_242_171)">
<path d="M3.92432 42.1946C3.79892 41.9308 3.6173 41.7276 3.37946 41.5849C3.14162 41.4378 2.86487 41.3643 2.54919 41.3643C2.23351 41.3643 1.94811 41.4378 1.69297 41.5849C1.44216 41.7276 1.24325 41.9351 1.09622 42.2076C0.953514 42.4757 0.882163 42.787 0.882163 43.1416C0.882163 43.4962 0.953514 43.8076 1.09622 44.0757C1.24325 44.3438 1.44216 44.5513 1.69297 44.6984C1.94811 44.8411 2.23351 44.9124 2.54919 44.9124C2.99027 44.9124 3.35351 44.7806 3.63892 44.5168C3.92432 44.253 4.09081 43.8962 4.13838 43.4465H2.33514V42.9665H4.76757V43.4205C4.73298 43.7924 4.61622 44.1341 4.4173 44.4454C4.21838 44.7524 3.95676 44.9968 3.63243 45.1784C3.30811 45.3557 2.94703 45.4443 2.54919 45.4443C2.12973 45.4443 1.74703 45.347 1.40108 45.1524C1.05514 44.9535 0.780539 44.6789 0.577298 44.3286C0.378378 43.9784 0.278919 43.5827 0.278919 43.1416C0.278919 42.7005 0.378378 42.3049 0.577298 41.9546C0.780539 41.6 1.05514 41.3254 1.40108 41.1308C1.74703 40.9319 2.12973 40.8324 2.54919 40.8324C3.02919 40.8324 3.45297 40.9513 3.82054 41.1892C4.19243 41.4271 4.4627 41.7621 4.63135 42.1946H3.92432ZM7.92856 45.4054L6.85181 43.5568H6.13829V45.4054H5.54802V40.8843H7.00748C7.34912 40.8843 7.63667 40.9427 7.87018 41.0595C8.10804 41.1762 8.28532 41.334 8.40208 41.533C8.51883 41.7319 8.57721 41.9589 8.57721 42.2141C8.57721 42.5254 8.4864 42.8 8.30478 43.0378C8.1275 43.2757 7.85935 43.4335 7.50045 43.5114L8.63559 45.4054H7.92856ZM6.13829 43.0832H7.00748C7.32746 43.0832 7.56746 43.0054 7.72748 42.8497C7.8875 42.6897 7.96748 42.4779 7.96748 42.2141C7.96748 41.946 7.8875 41.7384 7.72748 41.5914C7.57181 41.4443 7.33181 41.3708 7.00748 41.3708H6.13829V43.0832ZM12.1668 44.4H10.1949L9.8317 45.4054H9.20899L10.8436 40.9103H11.5247L13.1528 45.4054H12.5301L12.1668 44.4ZM11.9982 43.92L11.1809 41.6368L10.3636 43.92H11.9982ZM16.8879 42.2076C16.8879 42.5838 16.7582 42.8973 16.4987 43.1481C16.2435 43.3946 15.8522 43.5178 15.3246 43.5178H14.4555V45.4054H13.8652V40.8843H15.3246C15.8349 40.8843 16.2219 41.0076 16.4857 41.2541C16.7538 41.5005 16.8879 41.8184 16.8879 42.2076ZM15.3246 43.0314C15.6533 43.0314 15.8955 42.96 16.0511 42.8173C16.2068 42.6746 16.2846 42.4714 16.2846 42.2076C16.2846 41.6497 15.9646 41.3708 15.3246 41.3708H14.4555V43.0314H15.3246ZM20.6442 42.2076C20.6442 42.5838 20.5145 42.8973 20.255 43.1481C19.9999 43.3946 19.6085 43.5178 19.081 43.5178H18.2118V45.4054H17.6215V40.8843H19.081C19.5913 40.8843 19.9782 41.0076 20.2421 41.2541C20.5101 41.5005 20.6442 41.8184 20.6442 42.2076ZM19.081 43.0314C19.4096 43.0314 19.6518 42.96 19.8075 42.8173C19.9631 42.6746 20.041 42.4714 20.041 42.2076C20.041 41.6497 19.721 41.3708 19.081 41.3708H18.2118V43.0314H19.081ZM21.9681 44.9254H23.5508V45.4054H21.3778V40.8843H21.9681V44.9254ZM24.7679 40.8843V45.4054H24.1777V40.8843H24.7679ZM29.3285 45.4054H28.7382L26.3642 41.8054V45.4054H25.7739V40.8778H26.3642L28.7382 44.4714V40.8778H29.3285V45.4054ZM33.7596 42.1946C33.6343 41.9308 33.4526 41.7276 33.2148 41.5849C32.9769 41.4378 32.7002 41.3643 32.3845 41.3643C32.0688 41.3643 31.7834 41.4378 31.5283 41.5849C31.2774 41.7276 31.0786 41.9351 30.9315 42.2076C30.7888 42.4757 30.7175 42.787 30.7175 43.1416C30.7175 43.4962 30.7888 43.8076 30.9315 44.0757C31.0786 44.3438 31.2774 44.5513 31.5283 44.6984C31.7834 44.8411 32.0688 44.9124 32.3845 44.9124C32.8256 44.9124 33.1888 44.7806 33.4742 44.5168C33.7596 44.253 33.9261 43.8962 33.9737 43.4465H32.1704V42.9665H34.6029V43.4205C34.5683 43.7924 34.4515 44.1341 34.2526 44.4454C34.0537 44.7524 33.7921 44.9968 33.4677 45.1784C33.1434 45.3557 32.7823 45.4443 32.3845 45.4443C31.965 45.4443 31.5823 45.347 31.2364 45.1524C30.8905 44.9535 30.6158 44.6789 30.4126 44.3286C30.2137 43.9784 30.1142 43.5827 30.1142 43.1416C30.1142 42.7005 30.2137 42.3049 30.4126 41.9546C30.6158 41.6 30.8905 41.3254 31.2364 41.1308C31.5823 40.9319 31.965 40.8324 32.3845 40.8324C32.8645 40.8324 33.2883 40.9513 33.6558 41.1892C34.0277 41.4271 34.298 41.7621 34.4667 42.1946H33.7596ZM39.8953 40.8843V41.3643H38.6629V45.4054H38.0726V41.3643H36.8337V40.8843H39.8953ZM43.0025 45.4054L41.9257 43.5568H41.2122V45.4054H40.6219V40.8843H42.0814C42.423 40.8843 42.7106 40.9427 42.9441 41.0595C43.1819 41.1762 43.3592 41.334 43.476 41.533C43.5928 41.7319 43.6511 41.9589 43.6511 42.2141C43.6511 42.5254 43.5603 42.8 43.3787 43.0378C43.2014 43.2757 42.9333 43.4335 42.5744 43.5114L43.7095 45.4054H43.0025ZM41.2122 43.0832H42.0814C42.4014 43.0832 42.6414 43.0054 42.8014 42.8497C42.9614 42.6897 43.0414 42.4779 43.0414 42.2141C43.0414 41.946 42.9614 41.7384 42.8014 41.5914C42.6457 41.4443 42.4057 41.3708 42.0814 41.3708H41.2122V43.0832ZM47.2408 44.4H45.2689L44.9056 45.4054H44.2829L45.9175 40.9103H46.5986L48.2267 45.4054H47.604L47.2408 44.4ZM47.0721 43.92L46.2548 41.6368L45.4375 43.92H47.0721ZM48.7185 43.1416C48.7185 42.7005 48.818 42.3049 49.0169 41.9546C49.2158 41.6 49.4861 41.3233 49.8277 41.1243C50.1737 40.9254 50.5564 40.8259 50.9758 40.8259C51.4688 40.8259 51.8991 40.9448 52.2666 41.1827C52.6342 41.4206 52.9023 41.7579 53.0709 42.1946H52.3639C52.2385 41.9222 52.0569 41.7125 51.8191 41.5654C51.5855 41.4184 51.3045 41.3449 50.9758 41.3449C50.6602 41.3449 50.3769 41.4184 50.1261 41.5654C49.8753 41.7125 49.6785 41.9222 49.5358 42.1946C49.3931 42.4627 49.3218 42.7784 49.3218 43.1416C49.3218 43.5005 49.3931 43.8162 49.5358 44.0887C49.6785 44.3567 49.8753 44.5643 50.1261 44.7114C50.3769 44.8584 50.6602 44.9319 50.9758 44.9319C51.3045 44.9319 51.5855 44.8605 51.8191 44.7178C52.0569 44.5708 52.2385 44.3611 52.3639 44.0887H53.0709C52.9023 44.5211 52.6342 44.8562 52.2666 45.0941C51.8991 45.3276 51.4688 45.4443 50.9758 45.4443C50.5564 45.4443 50.1737 45.347 49.8277 45.1524C49.4861 44.9535 49.2158 44.6789 49.0169 44.3286C48.818 43.9784 48.7185 43.5827 48.7185 43.1416ZM56.4015 45.4054L54.5399 43.3427V45.4054H53.9496V40.8843H54.5399V42.9795L56.408 40.8843H57.1539L55.1042 43.1481L57.1734 45.4054H56.4015ZM58.4229 41.3643V42.8757H60.0705V43.3622H58.4229V44.9189H60.2651V45.4054H57.8327V40.8778H60.2651V41.3643H58.4229ZM63.5388 45.4054L62.462 43.5568H61.7485V45.4054H61.1582V40.8843H62.6177C62.9593 40.8843 63.2469 40.9427 63.4804 41.0595C63.7183 41.1762 63.8955 41.334 64.0123 41.533C64.129 41.7319 64.1874 41.9589 64.1874 42.2141C64.1874 42.5254 64.0966 42.8 63.915 43.0378C63.7377 43.2757 63.4696 43.4335 63.1107 43.5114L64.2458 45.4054H63.5388ZM61.7485 43.0832H62.6177C62.9377 43.0832 63.1777 43.0054 63.3377 42.8497C63.4977 42.6897 63.5777 42.4779 63.5777 42.2141C63.5777 41.946 63.4977 41.7384 63.3377 41.5914C63.182 41.4443 62.942 41.3708 62.6177 41.3708H61.7485V43.0832Z" fill="black"/>
<mask id="mask0_242_171" style="mask-type:alpha" maskUnits="userSpaceOnUse" x="36" y="0" width="29" height="34">
<path d="M44.9065 32.7441V8.52629H36.6736V1.20462H63.5676V8.52629H54.237V32.7441H44.9065Z" fill="black" stroke="black" stroke-width="1.25939"/>
</mask>
<g mask="url(#mask0_242_171)">
<path d="M35.4511 8.48296V1.20462H63.5676V9.08951H54.3992V21.8266C54.3992 11.1517 47.8794 8.48296 44.6196 8.48296H35.4511Z" fill="url(#paint0_linear_242_171)" stroke="url(#paint1_linear_242_171)" stroke-width="1.25939"/>
<path d="M54.3992 21.8266C53.788 12.7287 47.6757 9.69606 44.6196 9.69606V35.1702H54.3992V21.8266Z" fill="url(#paint2_linear_242_171)" stroke="url(#paint3_linear_242_171)" stroke-width="1.25939"/>
<path d="M59.9002 9.08951C58.8757 2.29642 53.5066 -0.00839233 50.7318 -0.00839233H64.1788V9.08951H59.9002Z" fill="url(#paint4_linear_242_171)" stroke="url(#paint5_linear_242_171)" stroke-width="1.25939"/>
<path d="M54.3992 33.9572C49.0204 33.9572 44.7723 28.4984 43.3971 21.8266V35.1702H54.3992V33.9572Z" fill="url(#paint6_linear_242_171)" stroke="url(#paint7_linear_242_171)" stroke-width="1.25939"/>
</g>
<mask id="mask1_242_171" style="mask-type:alpha" maskUnits="userSpaceOnUse" x="0" y="0" width="35" height="34">
<path d="M17.1143 33.7297C26.5663 33.7297 34.2287 26.1791 34.2287 16.8649C34.2287 7.55066 26.5663 0 17.1143 0C7.66235 0 0 7.55066 0 16.8649C0 26.1791 7.66235 33.7297 17.1143 33.7297Z" fill="#D9D9D9"/>
</mask>
<g mask="url(#mask1_242_171)">
<path d="M33.7297 16.5405C33.7297 21.0378 32.2875 24.471 31.3763 25.8595C27.383 29.2325 2.2819 28.1081 7.98668 19.6757C12.3243 28.8649 23.027 25.7674 24.3243 22.3784H18.8258V16.5405H33.7297Z" fill="url(#paint8_linear_242_171)" stroke="url(#paint9_linear_242_171)" stroke-width="1.12432"/>
<path d="M14.9842 4.60271C20.6889 4.60281 25.8232 10.6811 25.8232 13.5973C21.6782 4.49731 7.98668 6.74595 7.98668 16.8649C7.98668 18.3431 8.33526 19.8005 9.00415 21.1188L9.12765 21.3621C10.6358 23.963 12.6051 26.3663 15.4467 27.3482C19.384 28.7086 25.9776 29.4781 34.2287 24.7352C32.5173 30.3568 20.6889 34.0227 17.2661 33.8353C1.29266 33.8353 -1.6446 17.6998 0.722173 13.0352C5.85651 2.91623 14.4137 4.60271 14.9842 4.60271Z" fill="url(#paint10_linear_242_171)" stroke="url(#paint11_linear_242_171)" stroke-width="1.12432"/>
<path d="M33.6582 13.4919H25.6715C25.101 9.55674 20.6548 5.05946 15.9734 5.05946C6.27526 5.05946 0.570477 10.1189 -0.570479 13.4919C0.190158 9.18201 5.70478 0 17.1143 0C28.5239 0 32.8976 9.18201 33.6582 13.4919Z" fill="url(#paint12_linear_242_171)" stroke="url(#paint13_linear_242_171)" stroke-width="1.12432"/>
</g>
</g>
<defs>
<linearGradient id="paint0_linear_242_171" x1="49.5093" y1="1.20462" x2="49.5093" y2="10.3025" gradientUnits="userSpaceOnUse">
<stop stop-color="#FF7000"/>
<stop offset="1" stop-color="#FEAE6F"/>
</linearGradient>
<linearGradient id="paint1_linear_242_171" x1="49.5093" y1="1.81114" x2="49.5093" y2="10.3026" gradientUnits="userSpaceOnUse">
<stop stop-color="#FF7000"/>
<stop offset="1" stop-color="#FEAE6F"/>
</linearGradient>
<linearGradient id="paint2_linear_242_171" x1="49.5093" y1="9.69606" x2="49.5093" y2="35.1702" gradientUnits="userSpaceOnUse">
<stop stop-color="#FF7000"/>
<stop offset="1" stop-color="#FEAE6F"/>
</linearGradient>
<linearGradient id="paint3_linear_242_171" x1="49.5093" y1="9.69606" x2="49.5093" y2="35.1702" gradientUnits="userSpaceOnUse">
<stop stop-color="#FF7000"/>
<stop offset="1" stop-color="#FEAE6F"/>
</linearGradient>
<linearGradient id="paint4_linear_242_171" x1="61.1227" y1="8.48303" x2="61.1227" y2="-0.00839132" gradientUnits="userSpaceOnUse">
<stop stop-color="#FF7000"/>
<stop offset="1" stop-color="#FEAE6F"/>
</linearGradient>
<linearGradient id="paint5_linear_242_171" x1="61.1227" y1="8.48303" x2="61.1227" y2="-0.00839233" gradientUnits="userSpaceOnUse">
<stop stop-color="#FF7000"/>
<stop offset="1" stop-color="#FEAE6F"/>
</linearGradient>
<linearGradient id="paint6_linear_242_171" x1="48.8981" y1="30.9245" x2="48.8981" y2="35.1702" gradientUnits="userSpaceOnUse">
<stop stop-color="#FF7000"/>
<stop offset="1" stop-color="#FEAE6F"/>
</linearGradient>
<linearGradient id="paint7_linear_242_171" x1="48.2869" y1="30.9245" x2="48.2869" y2="35.1702" gradientUnits="userSpaceOnUse">
<stop stop-color="#FF7000"/>
<stop offset="1" stop-color="#FEAE6F"/>
</linearGradient>
<linearGradient id="paint8_linear_242_171" x1="27.9534" y1="25.8595" x2="27.9534" y2="16.3027" gradientUnits="userSpaceOnUse">
<stop stop-color="#FF7000"/>
<stop offset="1" stop-color="#FEAE6F"/>
</linearGradient>
<linearGradient id="paint9_linear_242_171" x1="26.242" y1="26.4216" x2="26.242" y2="15.7406" gradientUnits="userSpaceOnUse">
<stop stop-color="#FF7000"/>
<stop offset="1" stop-color="#FEAE6F"/>
</linearGradient>
<linearGradient id="paint10_linear_242_171" x1="26.5946" y1="19.4595" x2="3.56757" y2="19.4591" gradientUnits="userSpaceOnUse">
<stop stop-color="#FEAE6F"/>
<stop offset="1" stop-color="#FF7000"/>
</linearGradient>
<linearGradient id="paint11_linear_242_171" x1="4.54054" y1="19.4595" x2="26.2703" y2="19.4595" gradientUnits="userSpaceOnUse">
<stop stop-color="#FF7000"/>
<stop offset="1" stop-color="#FEAE6F"/>
</linearGradient>
<linearGradient id="paint12_linear_242_171" x1="29.6648" y1="5.62162" x2="0.972974" y2="5.51351" gradientUnits="userSpaceOnUse">
<stop stop-color="#FF7000"/>
<stop offset="1" stop-color="#FEAE6F"/>
</linearGradient>
<linearGradient id="paint13_linear_242_171" x1="30.2353" y1="6.74595" x2="0.648645" y2="6.48649" gradientUnits="userSpaceOnUse">
<stop stop-color="#FF7000"/>
<stop offset="1" stop-color="#FEAE6F"/>
</linearGradient>
<clipPath id="clip0_242_171">
<rect width="64.8649" height="48" fill="white"/>
</clipPath>
</defs>
</svg>
