<svg width="89" height="52" viewBox="0 0 89 52" fill="none" xmlns="http://www.w3.org/2000/svg">
<path d="M14.5578 27.2797C13.5444 27.0968 11.1779 26.2172 6.71663 24.4565C7.36532 22.8129 9.77065 19.2393 11.1897 18.6234C11.0515 21.174 17.272 22.9234 20.2111 23.2692C18.6393 23.9514 15.7873 26.2271 14.5578 27.2797Z" fill="url(#paint0_linear_256_334)"/>
<path d="M11.9657 18.4729C9.48808 19.9376 7.59382 21.5463 7.04408 24.3144C4.22644 23.2025 1.28882 20.7722 1.41841 18.381C1.52207 16.468 3.35484 15.2729 3.84027 14.9948C5.24281 14.1915 10.8757 12.5248 13.9981 11.9479C18.4942 11.099 27.7767 9.35303 28.9384 9.16017C30.1 8.96727 30.5777 9.08268 30.7673 9.3392C31.6633 10.507 30.1744 12.9044 28.6297 13.3804C26.3299 14.0889 20.7456 15.4792 17.1125 16.4335C13.4795 17.3878 12.6977 18.0402 11.9657 18.4729Z" fill="url(#paint1_linear_256_334)" stroke="url(#paint2_linear_256_334)" stroke-width="0.504854"/>
<path d="M11.0149 30.0479C6.46441 34.9754 4.22965 38.9636 4.30139 40.0901C4.31058 42.0126 8.38598 43.7361 9.64873 42.3515C12.7151 38.9892 18.1117 33.1959 22.3021 31.0358C25.8069 29.2291 27.8782 28.4092 35.7645 27.9072C40.7588 27.5894 43.1847 20.0824 39.304 19.5376C36.1995 19.1017 31.5608 19.9172 29.6295 20.3795C26.9972 21.0095 22.9417 21.8514 19.6671 23.2727C16.2614 24.7509 12.487 28.2952 11.0149 30.0479Z" fill="url(#paint3_linear_256_334)" stroke="url(#paint4_linear_256_334)" stroke-width="0.504854"/>
<path d="M13.933 8.48988C10.4567 9.11787 8.44768 7.65111 7.93379 6.48323C7.28278 5.00382 8.02486 2.21621 12.3546 1.65218C16.3074 1.13725 17.8509 2.59305 18.224 4.14666C18.5103 5.33913 17.7717 7.79636 13.933 8.48988Z" fill="url(#paint5_linear_256_334)" stroke="url(#paint6_linear_256_334)" stroke-width="0.504854"/>
<g filter="url(#filter0_f_256_334)">
<path d="M19.1298 22.5711C16.7992 23.4088 13.5703 26.1082 12.494 27.008" stroke="#BD5300" stroke-width="0.252427" stroke-linecap="square"/>
</g>
<path d="M49.7211 14.0143C49.5649 13.6857 49.3388 13.4327 49.0426 13.2549C48.7464 13.0718 48.4018 12.9803 48.0086 12.9803C47.6155 12.9803 47.2601 13.0718 46.9424 13.2549C46.6301 13.4327 46.3823 13.6911 46.1992 14.0304C46.0215 14.3643 45.9327 14.752 45.9327 15.1936C45.9327 15.6351 46.0215 16.0229 46.1992 16.3568C46.3823 16.6906 46.6301 16.9491 46.9424 17.1322C47.2601 17.3099 47.6155 17.3988 48.0086 17.3988C48.5579 17.3988 49.0103 17.2345 49.3657 16.9061C49.7211 16.5775 49.9284 16.1333 49.9877 15.5732H47.7421V14.9755H50.7712V15.5409C50.7283 16.004 50.5829 16.4295 50.335 16.8172C50.0873 17.1995 49.7615 17.5038 49.3576 17.73C48.9537 17.9508 48.5041 18.0612 48.0086 18.0612C47.4863 18.0612 47.0097 17.94 46.5789 17.6977C46.1481 17.4499 45.8061 17.108 45.553 16.6718C45.3053 16.2356 45.1814 15.7429 45.1814 15.1936C45.1814 14.6443 45.3053 14.1516 45.553 13.7154C45.8061 13.2738 46.1481 12.9318 46.5789 12.6895C47.0097 12.4418 47.4863 12.3179 48.0086 12.3179C48.6064 12.3179 49.1341 12.466 49.5918 12.7622C50.055 13.0584 50.3915 13.4757 50.6016 14.0143H49.7211ZM54.7075 18.0127L53.3666 15.7106H52.4781V18.0127H51.743V12.3826H53.5605C53.9861 12.3826 54.344 12.4553 54.6348 12.6007C54.9312 12.7461 55.1518 12.9426 55.2972 13.1903C55.4426 13.438 55.5153 13.7207 55.5153 14.0385C55.5153 14.4262 55.4022 14.7681 55.176 15.0643C54.9554 15.3605 54.6217 15.5571 54.1744 15.654L55.588 18.0127H54.7075ZM52.4781 15.1209H53.5605C53.9593 15.1209 54.2582 15.024 54.4571 14.8301C54.6565 14.6308 54.756 14.3669 54.756 14.0385C54.756 13.7046 54.6565 13.4461 54.4571 13.263C54.2633 13.0799 53.9644 12.9884 53.5605 12.9884H52.4781V15.1209ZM59.9858 16.7607H57.5302L57.0778 18.0127H56.3024L58.3379 12.4149H59.1861L61.2136 18.0127H60.4381L59.9858 16.7607ZM59.7758 16.1629L58.758 13.3196L57.7402 16.1629H59.7758ZM65.8648 14.0304C65.8648 14.4989 65.7033 14.8893 65.3802 15.2017C65.0621 15.5086 64.5749 15.6621 63.9181 15.6621H62.8357V18.0127H62.1006V12.3826H63.9181C64.5532 12.3826 65.0353 12.536 65.364 12.843C65.6977 13.1499 65.8648 13.5457 65.8648 14.0304ZM63.9181 15.0563C64.327 15.0563 64.6289 14.9674 64.8228 14.7897C65.0167 14.612 65.1136 14.3589 65.1136 14.0304C65.1136 13.3357 64.7148 12.9884 63.9181 12.9884H62.8357V15.0563H63.9181ZM70.5423 14.0304C70.5423 14.4989 70.3807 14.8893 70.0576 15.2017C69.7401 15.5086 69.2529 15.6621 68.5956 15.6621H67.5132V18.0127H66.7781V12.3826H68.5956C69.2312 12.3826 69.7133 12.536 70.0415 12.843C70.3757 13.1499 70.5423 13.5457 70.5423 14.0304ZM68.5956 15.0563C69.005 15.0563 69.3064 14.9674 69.5003 14.7897C69.6941 14.612 69.7911 14.3589 69.7911 14.0304C69.7911 13.3357 69.3927 12.9884 68.5956 12.9884H67.5132V15.0563H68.5956ZM72.1911 17.4149H74.1621V18.0127H71.4561V12.3826H72.1911V17.4149ZM75.6777 12.3826V18.0127H74.9426V12.3826H75.6777ZM81.3573 18.0127H80.6222L77.6658 13.5296V18.0127H76.9307V12.3745H77.6658L80.6222 16.8495V12.3745H81.3573V18.0127ZM86.8753 14.0143C86.7188 13.6857 86.4927 13.4327 86.1968 13.2549C85.9005 13.0718 85.5556 12.9803 85.1629 12.9803C84.7696 12.9803 84.4142 13.0718 84.0966 13.2549C83.7841 13.4327 83.5362 13.6911 83.3535 14.0304C83.1758 14.3643 83.0869 14.752 83.0869 15.1936C83.0869 15.6351 83.1758 16.0229 83.3535 16.3568C83.5362 16.6906 83.7841 16.9491 84.0966 17.1322C84.4142 17.3099 84.7696 17.3988 85.1629 17.3988C85.7122 17.3988 86.1645 17.2345 86.5199 16.9061C86.8753 16.5775 87.0823 16.1333 87.1419 15.5732H84.8963V14.9755H87.9254V15.5409C87.882 16.004 87.7366 16.4295 87.4892 16.8172C87.2414 17.1995 86.9157 17.5038 86.5118 17.73C86.108 17.9508 85.6581 18.0612 85.1629 18.0612C84.6404 18.0612 84.1638 17.94 83.7331 17.6977C83.302 17.4499 82.9602 17.108 82.7073 16.6718C82.4594 16.2356 82.3357 15.7429 82.3357 15.1936C82.3357 14.6443 82.4594 14.1516 82.7073 13.7154C82.9602 13.2738 83.302 12.9318 83.7331 12.6895C84.1638 12.4418 84.6404 12.3179 85.1629 12.3179C85.7606 12.3179 86.2882 12.466 86.7461 12.7622C87.209 13.0584 87.5458 13.4757 87.7558 14.0143H86.8753ZM48.9214 24.4991V25.0968H47.3866V30.1292H46.6516V25.0968H45.1087V24.4991H48.9214ZM52.7906 30.1292L51.4497 27.8271H50.5612V30.1292H49.8262V24.4991H51.6436C52.0692 24.4991 52.4271 24.5718 52.7179 24.7172C53.0143 24.8626 53.2349 25.0591 53.3803 25.3068C53.5257 25.5545 53.5984 25.8372 53.5984 26.155C53.5984 26.5427 53.4853 26.8847 53.2591 27.1809C53.0385 27.477 52.7048 27.6736 52.2575 27.7705L53.6711 30.1292H52.7906ZM50.5612 27.2374H51.6436C52.0424 27.2374 52.3413 27.1405 52.5402 26.9466C52.7396 26.7473 52.8391 26.4834 52.8391 26.155C52.8391 25.8211 52.7396 25.5626 52.5402 25.3795C52.3463 25.1964 52.0475 25.1049 51.6436 25.1049H50.5612V27.2374ZM58.0689 28.8772H55.6132L55.1609 30.1292H54.3854L56.421 24.5314H57.2692L59.2967 30.1292H58.5212L58.0689 28.8772ZM57.8588 28.2794L56.841 25.4361L55.8233 28.2794H57.8588ZM59.909 27.3101C59.909 26.7608 60.0327 26.2681 60.2806 25.8319C60.5285 25.3903 60.8647 25.0456 61.2903 24.7979C61.721 24.5502 62.1976 24.4264 62.7201 24.4264C63.334 24.4264 63.8696 24.5744 64.3275 24.8706C64.7854 25.1668 65.1191 25.5868 65.3292 26.1308H64.4487C64.2927 25.7915 64.0665 25.5303 63.7702 25.3472C63.4794 25.1641 63.1295 25.0726 62.7201 25.0726C62.3268 25.0726 61.9744 25.1641 61.6619 25.3472C61.3494 25.5303 61.1045 25.7915 60.9268 26.1308C60.7491 26.4646 60.6603 26.8577 60.6603 27.3101C60.6603 27.757 60.7491 28.1502 60.9268 28.4894C61.1045 28.8233 61.3494 29.0818 61.6619 29.2649C61.9744 29.448 62.3268 29.5395 62.7201 29.5395C63.1295 29.5395 63.4794 29.4507 63.7702 29.273C64.0665 29.0899 64.2927 28.8287 64.4487 28.4894H65.3292C65.1191 29.0279 64.7854 29.4453 64.3275 29.7415C63.8696 30.0323 63.334 30.1777 62.7201 30.1777C62.1976 30.1777 61.721 30.0565 61.2903 29.8142C60.8647 29.5664 60.5285 29.2245 60.2806 28.7883C60.0327 28.3521 59.909 27.8594 59.909 27.3101ZM69.4765 30.1292L67.1582 27.5605V30.1292H66.4232V24.4991H67.1582V27.1082L69.4846 24.4991H70.4136L67.861 27.3182L70.4378 30.1292H69.4765ZM71.9937 25.0968V26.9789H74.0455V27.5847H71.9937V29.5234H74.2878V30.1292H71.2587V24.491H74.2878V25.0968H71.9937ZM78.365 30.1292L77.0241 27.8271H76.1356V30.1292H75.4005V24.4991H77.218C77.6431 24.4991 78.0015 24.5718 78.2923 24.7172C78.5882 24.8626 78.8093 25.0591 78.9547 25.3068C79.1001 25.5545 79.1728 25.8372 79.1728 26.155C79.1728 26.5427 79.0597 26.8847 78.8335 27.1809C78.6124 27.477 78.2787 27.6736 77.8319 27.7705L79.2455 30.1292H78.365ZM76.1356 27.2374H77.218C77.6163 27.2374 77.9152 27.1405 78.1146 26.9466C78.3135 26.7473 78.4135 26.4834 78.4135 26.155C78.4135 25.8211 78.3135 25.5626 78.1146 25.3795C77.9207 25.1964 77.6219 25.1049 77.218 25.1049H76.1356V27.2374Z" fill="black"/>
<defs>
<filter id="filter0_f_256_334" x="9.28712" y="19.3805" width="13.0333" height="10.8344" filterUnits="userSpaceOnUse" color-interpolation-filters="sRGB">
<feFlood flood-opacity="0" result="BackgroundImageFix"/>
<feBlend mode="normal" in="SourceGraphic" in2="BackgroundImageFix" result="shape"/>
<feGaussianBlur stdDeviation="1.51456" result="effect1_foregroundBlur_256_334"/>
</filter>
<linearGradient id="paint0_linear_256_334" x1="14.323" y1="27.187" x2="10.819" y2="19.5625" gradientUnits="userSpaceOnUse">
<stop stop-color="#FF7000"/>
<stop offset="1" stop-color="#FEAE6F"/>
</linearGradient>
<linearGradient id="paint1_linear_256_334" x1="5.79952" y1="23.0952" x2="30.0691" y2="10.4206" gradientUnits="userSpaceOnUse">
<stop stop-color="#FF7000"/>
<stop offset="1" stop-color="#FEAE6F"/>
</linearGradient>
<linearGradient id="paint2_linear_256_334" x1="4.44018" y1="23.1015" x2="30.9589" y2="10.229" gradientUnits="userSpaceOnUse">
<stop stop-color="#FF7000"/>
<stop offset="1" stop-color="#FEAE6F"/>
</linearGradient>
<linearGradient id="paint3_linear_256_334" x1="33.1629" y1="22.0819" x2="-0.472944" y2="46.7997" gradientUnits="userSpaceOnUse">
<stop stop-color="#FF7000"/>
<stop offset="1" stop-color="#FEAE6F"/>
</linearGradient>
<linearGradient id="paint4_linear_256_334" x1="36.7525" y1="17.7997" x2="2.00467" y2="45.3352" gradientUnits="userSpaceOnUse">
<stop stop-color="#FF7000"/>
<stop offset="1" stop-color="#FEAE6F"/>
</linearGradient>
<linearGradient id="paint5_linear_256_334" x1="15.892" y1="7.39606" x2="10.3344" y2="0.77838" gradientUnits="userSpaceOnUse">
<stop stop-color="#FF7000"/>
<stop offset="1" stop-color="#F06900"/>
</linearGradient>
<linearGradient id="paint6_linear_256_334" x1="15.3297" y1="7.44554" x2="9.25358" y2="1.84806" gradientUnits="userSpaceOnUse">
<stop stop-color="#FF7000"/>
<stop offset="1" stop-color="#EE6900"/>
</linearGradient>
</defs>
</svg>
